<?xml version="1.0" standalone="no"?>
<!DOCTYPE svg PUBLIC "-//W3C//DTD SVG 20010904//EN"
 "http://www.w3.org/TR/2001/REC-SVG-20010904/DTD/svg10.dtd">
<svg version="1.0" xmlns="http://www.w3.org/2000/svg"
 width="500.000000pt" height="500.000000pt" viewBox="0 0 500.000000 500.000000"
 preserveAspectRatio="xMidYMid meet">
<metadata>
Created by potrace 1.14, written by Peter Selinger 2001-2017
</metadata>
<g transform="translate(0.000000,500.000000) scale(0.100000,-0.100000)"
fill="#000000" stroke="none">
<path d="M703 3152 c-30 -5 -82 -58 -101 -101 -17 -43 -27 -149 -17 -199 7
-37 8 -36 25 35 9 39 24 83 34 97 9 14 13 26 10 26 -4 0 5 11 21 24 15 13 35
22 44 21 9 -2 21 -4 27 -4 5 -1 35 -23 65 -51 63 -58 104 -67 115 -25 13 53
-20 103 -97 148 -45 26 -87 36 -126 29z"/>
<path d="M1059 3109 c-36 -13 -71 -83 -58 -118 25 -65 79 -92 134 -65 58 27
72 104 28 154 -31 34 -64 43 -104 29z"/>
<path d="M1391 2883 c-26 -58 -105 -139 -146 -149 -31 -8 -49 12 -80 89 -23
57 -46 77 -72 61 -30 -19 -33 -75 -5 -135 34 -73 76 -109 126 -109 29 0 91 32
114 60 53 63 96 161 90 206 -3 27 -5 26 -27 -23z"/>
<path d="M645 2740 c-23 -26 -22 -62 4 -98 11 -17 21 -33 21 -37 0 -8 -59 -78
-131 -157 -24 -26 -64 -71 -89 -99 -25 -28 -61 -68 -80 -88 -65 -68 -70 -78
-25 -51 22 13 45 28 50 33 9 7 52 36 95 62 72 45 202 135 233 163 58 50 83 59
107 37 42 -38 24 -58 -129 -138 -61 -32 -111 -61 -111 -64 0 -19 209 31 282
68 45 23 85 64 93 97 15 60 -150 240 -255 277 -52 18 -43 19 -65 -5z"/>
<path d="M1440 2710 c-11 -7 -8 -25 20 -160 12 -58 24 -114 26 -125 16 -82 14
-80 96 -83 l76 -3 12 58 c6 32 14 69 17 83 4 14 6 28 5 33 -1 4 2 7 6 7 8 0
34 -118 33 -152 0 -23 29 -30 104 -26 59 3 59 3 67 38 4 19 21 97 38 173 16
76 30 142 30 147 0 15 -140 13 -141 -2 -2 -31 -7 -66 -14 -108 -4 -25 -8 -51
-8 -58 -1 -25 -15 4 -21 42 -6 37 -8 49 -21 111 -5 23 -9 25 -65 25 -68 0 -61
12 -86 -140 -10 -60 -21 -54 -30 17 -4 37 -8 71 -10 76 -1 4 -2 16 -3 26 -1
16 -10 20 -62 23 -34 1 -65 1 -69 -2z"/>
<path d="M2062 2712 l-53 -3 3 -185 2 -184 148 0 149 0 -3 53 -3 52 -74 0
c-51 0 -76 4 -79 13 -4 13 11 15 91 12 l47 -1 0 54 c0 63 -2 65 -82 61 -32 -2
-58 1 -58 7 0 10 2 10 85 13 l60 1 3 53 3 52 -48 1 c-26 0 -68 1 -93 2 -25 1
-69 1 -98 -1z"/>
<path d="M2418 2698 c-39 -22 -70 -78 -63 -114 2 -10 4 -22 4 -26 2 -16 55
-60 92 -76 21 -9 39 -22 39 -29 0 -17 -39 -16 -74 2 -15 8 -30 15 -31 15 -6 0
-45 -67 -45 -77 0 -18 81 -55 134 -60 43 -4 63 -1 98 17 106 53 100 160 -11
212 -52 23 -67 48 -31 48 11 0 29 -6 40 -12 17 -11 23 -9 45 14 30 32 31 43 8
67 -40 42 -146 52 -205 19z"/>
<path d="M2708 2710 c-11 -4 -15 -42 -16 -187 l-1 -183 69 0 70 0 0 59 0 59
43 0 c92 1 147 48 147 128 0 91 -79 138 -223 133 -42 -2 -82 -6 -89 -9z m172
-110 c12 -22 -3 -43 -26 -38 -12 2 -20 13 -22 30 -3 22 1 27 18 25 12 -1 25
-9 30 -17z"/>
<path d="M3208 2711 c-118 -38 -177 -167 -123 -270 35 -69 127 -117 204 -108
81 9 167 75 178 136 20 108 -12 182 -101 228 -35 18 -121 26 -158 14z m103
-142 c35 -35 9 -109 -39 -109 -49 0 -76 60 -47 104 21 32 57 34 86 5z"/>
<path d="M3535 2703 c-3 -8 -5 -93 -5 -189 l0 -175 68 3 67 3 5 60 5 60 33
-62 32 -63 75 0 c41 0 75 2 75 4 0 3 -18 33 -40 68 l-39 64 24 48 c38 76 12
152 -63 177 -54 19 -229 20 -237 2z m169 -96 c21 -16 12 -47 -15 -47 -14 0
-19 7 -19 30 0 33 7 37 34 17z"/>
<path d="M4362 2705 c-62 -27 -92 -72 -81 -123 9 -43 33 -69 92 -98 26 -14 45
-29 41 -35 -7 -11 -52 -6 -81 9 -22 12 -32 7 -56 -31 -21 -33 -14 -47 39 -72
85 -40 192 -24 235 37 44 62 13 137 -73 175 -28 13 -47 27 -43 33 8 14 41 13
65 -2 17 -11 22 -9 37 12 40 54 33 70 -38 95 -52 19 -94 18 -137 0z"/>
<path d="M3907 2703 c-4 -3 -7 -30 -7 -60 l0 -53 50 0 c57 0 52 15 52 -147
l-1 -103 70 0 71 0 -2 38 c-1 20 -2 76 -1 125 l1 87 49 0 c56 0 58 4 52 77
l-3 43 -162 0 c-90 0 -166 -3 -169 -7z"/>
<path d="M1342 2133 c-8 -3 -10 -9 -3 -16 5 -7 15 -41 21 -77 7 -36 14 -71 16
-77 6 -22 34 -14 44 13 6 14 18 44 29 66 18 40 19 40 26 17 5 -13 9 -38 11
-56 5 -73 33 -71 68 6 14 32 26 62 26 67 0 4 10 18 22 31 l21 23 -26 0 c-15 0
-30 0 -34 0 -5 0 -8 -8 -8 -18 -1 -33 -17 -82 -26 -82 -6 0 -7 -4 -4 -10 3 -5
2 -10 -3 -10 -6 0 -13 22 -17 48 -12 91 -38 96 -70 13 -26 -69 -43 -66 -42 6
0 48 -3 57 -19 59 -10 1 -25 0 -32 -3z"/>
<path d="M1704 2128 c-3 -5 -1 -15 5 -22 6 -7 9 -15 7 -17 -2 -2 -6 -26 -9
-53 -4 -27 -11 -54 -17 -60 -20 -20 -9 -26 55 -26 50 0 67 4 72 16 3 8 1 20
-6 27 -8 8 -11 8 -11 -1 0 -12 -51 -17 -62 -6 -3 3 -4 14 -1 25 4 14 14 19 40
19 23 0 33 4 30 13 -2 6 -15 12 -28 12 -19 0 -25 6 -27 28 -3 24 0 27 27 27
17 0 31 -4 31 -10 0 -5 4 -10 9 -10 10 0 24 31 17 38 -10 9 -126 9 -132 0z"/>
<path d="M2033 2127 c-3 -5 0 -12 6 -16 7 -5 9 -21 5 -47 -4 -21 -7 -48 -8
-59 0 -11 -7 -24 -13 -28 -27 -17 -11 -27 43 -27 77 0 118 24 134 78 10 37
-11 88 -41 97 -34 11 -119 12 -126 2z m115 -33 c38 -26 21 -95 -28 -112 -42
-15 -52 -3 -45 58 4 30 9 58 11 62 8 13 38 9 62 -8z"/>
<path d="M2323 2122 c-17 -8 -34 -22 -37 -31 -23 -63 -25 -75 -11 -101 34 -67
146 -49 173 27 28 84 -43 144 -125 105z m89 -34 c14 -21 0 -81 -23 -99 -22
-16 -53 -15 -75 3 -20 15 -9 80 16 100 24 20 67 18 82 -4z"/>
<path d="M2690 2132 c-8 -1 -23 -13 -32 -26 -21 -29 -5 -67 32 -76 31 -7 38
-35 11 -50 -17 -8 -24 -7 -40 9 -22 22 -31 18 -31 -16 0 -20 5 -23 43 -23 46
0 57 5 73 35 15 28 0 63 -30 71 -39 9 -46 54 -9 54 9 0 24 -7 33 -15 15 -13
18 -14 23 -2 11 29 -27 50 -73 39z"/>
<path d="M2859 2129 c-10 -6 -11 -11 -3 -16 14 -9 -3 -143 -17 -143 -5 0 -9
-4 -9 -10 0 -5 15 -10 34 -10 34 0 35 1 29 33 -4 30 -3 32 28 34 17 1 40 10
50 19 22 20 25 67 5 83 -18 15 -99 22 -117 10z m92 -35 c9 -11 10 -20 2 -32
-12 -20 -58 -23 -57 -4 1 6 2 21 3 32 1 24 33 27 52 4z"/>
<path d="M3125 2129 c-65 -20 -94 -122 -44 -160 64 -49 159 -2 159 80 0 39
-25 81 -49 81 -5 0 -15 2 -23 4 -7 2 -26 0 -43 -5z m62 -34 c25 -17 25 -74 0
-99 -18 -19 -68 -21 -85 -4 -18 18 -14 62 9 92 23 29 45 33 76 11z"/>
<path d="M3334 2128 c-4 -7 -2 -14 4 -16 7 -2 10 -7 8 -10 -2 -4 -7 -32 -10
-62 -4 -30 -11 -59 -16 -64 -18 -18 -10 -26 25 -26 33 0 46 12 26 24 -12 8 -7
39 7 44 7 2 21 -13 33 -32 12 -21 29 -36 40 -36 23 0 25 13 4 30 -24 20 -29
50 -10 64 21 15 28 61 12 75 -19 15 -115 22 -123 9z m91 -48 c0 -20 -6 -26
-28 -28 -24 -3 -27 0 -23 20 3 13 5 27 5 31 1 5 11 7 24 5 16 -2 22 -10 22
-28z"/>
<path d="M3551 2130 c-9 -6 -22 -40 -16 -40 3 0 14 6 25 13 26 15 40 -3 34
-42 -12 -77 -16 -91 -24 -91 -6 0 -10 -4 -10 -10 0 -5 16 -10 36 -10 31 0 35
2 29 21 -4 11 -4 47 0 80 6 47 10 59 24 57 9 -2 19 -7 24 -13 9 -12 27 13 21
30 -5 11 -128 16 -143 5z"/>
<path d="M3808 2126 c-17 -8 -24 -22 -26 -48 -3 -35 -1 -38 30 -46 43 -11 45
-42 4 -53 -23 -7 -29 -4 -33 12 -7 24 -19 25 -25 2 -9 -33 3 -43 47 -43 81 0
109 77 38 107 -23 9 -33 19 -31 31 4 22 46 28 54 8 3 -9 10 -16 15 -16 11 0
12 49 2 51 -35 6 -56 5 -75 -5z"/>
</g>
</svg>
